<svg width="75" height="75" viewBox="0 0 75 75" fill="none" xmlns="http://www.w3.org/2000/svg">
<path d="M14.2543 65.625H61.3168C66.1293 65.625 69.1293 60.4062 66.723 56.25L43.1918 15.5938C40.7855 11.4375 34.7855 11.4375 32.3793 15.5938L8.84804 56.25C6.44179 60.4062 9.44178 65.625 14.2543 65.625ZM37.7855 43.75C36.0668 43.75 34.6605 42.3438 34.6605 40.625V34.375C34.6605 32.6562 36.0668 31.25 37.7855 31.25C39.5043 31.25 40.9105 32.6562 40.9105 34.375V40.625C40.9105 42.3438 39.5043 43.75 37.7855 43.75ZM40.9105 56.25H34.6605V50H40.9105V56.25Z" fill="black"/>
</svg>
